<?xml version="1.0" standalone="no"?>
<!DOCTYPE svg PUBLIC "-//W3C//DTD SVG 20010904//EN"
 "http://www.w3.org/TR/2001/REC-SVG-20010904/DTD/svg10.dtd">
<svg version="1.0" xmlns="http://www.w3.org/2000/svg"
 width="514.000000pt" height="514.000000pt" viewBox="0 0 514.000000 514.000000"
 preserveAspectRatio="xMidYMid meet">
<metadata>
Created by potrace 1.14, written by Peter Selinger 2001-2017
</metadata>
<g transform="translate(0.000000,514.000000) scale(0.100000,-0.100000)"
fill="#000000" stroke="none">
<path d="M20 5076 c0 -67 6 -76 51 -76 11 0 41 -11 67 -25 26 -14 54 -25 62
-25 8 0 24 -7 34 -15 11 -8 27 -15 36 -15 8 0 23 -9 33 -20 9 -11 24 -20 32
-20 8 0 32 -9 52 -20 21 -11 43 -20 50 -20 23 0 22 -18 -1 -22 -17 -4 -23 -1
-19 9 3 8 -2 13 -15 13 -39 0 -150 38 -224 76 -14 8 -37 14 -50 14 -12 1 -34
7 -48 15 -14 8 -33 14 -42 15 -17 0 -18 -15 -18 -175 0 -158 2 -176 18 -182 9
-3 35 -14 58 -24 22 -11 49 -19 59 -19 10 0 47 -13 82 -30 34 -16 72 -30 83
-30 11 0 20 -4 20 -10 0 -5 6 -10 14 -10 7 0 19 -7 26 -15 11 -13 10 -14 -6
-9 -10 4 -26 13 -34 19 -8 7 -37 16 -65 20 -27 4 -53 11 -56 16 -3 5 -32 16
-65 25 -32 8 -69 22 -81 30 -57 36 -53 100 -53 -959 l0 -972 37 -20 c20 -11
39 -20 42 -21 13 -2 47 -18 60 -28 14 -11 21 -13 69 -22 17 -4 32 -12 32 -19
0 -9 85 -13 373 -18 204 -3 442 -11 527 -17 104 -7 595 -9 1500 -6 1565 5
1910 -2 2418 -48 l42 -4 0 1354 0 1354 -2550 0 -2550 0 0 -64z m505 -276 c3
-5 16 -10 29 -10 12 0 30 -6 40 -13 33 -24 -8 -29 -56 -7 -24 11 -51 20 -60
20 -9 0 -20 5 -23 10 -4 6 8 10 29 10 19 0 38 -4 41 -10z m139 -65 c-4 -8 -11
-12 -16 -9 -6 4 -5 10 3 15 19 12 19 11 13 -6z m146 -48 c8 -3 2 -6 -14 -6
-16 -1 -26 2 -23 6 4 3 1 13 -5 22 -11 14 -10 14 7 0 11 -9 27 -19 35 -22z
m-330 -256 c0 -4 14 -8 31 -8 17 0 35 -6 40 -14 13 -21 -12 -25 -27 -4 -7 9
-17 14 -23 11 -10 -7 -80 24 -81 36 0 4 14 2 30 -3 17 -6 30 -14 30 -18z m166
-69 c-10 -2 -22 0 -28 6 -6 6 0 7 19 4 21 -5 23 -7 9 -10z m107 -36 c9 -7 17
-16 17 -20 0 -12 -22 -6 -47 14 -22 17 -23 20 -7 20 11 0 27 -7 37 -14z m162
-56 c13 -6 15 -9 5 -9 -8 0 -22 4 -30 9 -18 12 -2 12 25 0z m65 -30 c0 -5 -4
-10 -10 -10 -5 0 -10 5 -10 10 0 6 5 10 10 10 6 0 10 -4 10 -10z m858 -1018
c25 4 28 1 24 -19 -4 -22 -1 -23 46 -23 48 0 99 -20 142 -56 8 -7 44 -22 80
-34 36 -13 74 -31 86 -41 11 -11 25 -19 31 -19 6 0 42 -20 80 -45 37 -25 74
-45 81 -45 6 0 12 -9 12 -20 0 -17 7 -20 39 -20 24 0 41 -5 44 -14 3 -8 20
-17 37 -21 17 -4 34 -13 37 -21 3 -8 9 -11 14 -8 5 3 9 0 9 -5 0 -6 -4 -11 -9
-11 -5 0 -11 -11 -13 -25 -3 -24 -3 -24 -38 -7 -19 9 -36 20 -38 24 -7 15 -24
8 -44 -17 -11 -14 -24 -25 -29 -25 -5 0 -9 11 -9 25 0 20 -5 25 -25 25 -14 0
-25 -4 -25 -9 0 -5 11 -18 25 -29 14 -11 25 -24 25 -30 0 -6 18 -19 40 -29 22
-10 40 -23 40 -29 0 -19 32 -39 56 -36 13 2 24 -1 24 -6 0 -6 15 -15 33 -22
l32 -11 -24 -20 c-24 -20 -41 -25 -41 -11 0 13 -69 54 -79 47 -6 -3 -22 5 -36
19 -14 15 -30 26 -36 26 -15 0 -101 49 -125 71 -11 10 -26 19 -32 19 -7 0 -12
7 -12 16 0 8 -4 12 -10 9 -11 -6 -70 24 -70 36 0 4 -23 22 -52 39 -28 18 -58
38 -65 46 -8 8 -19 14 -24 14 -5 0 -24 13 -42 30 -18 16 -60 47 -93 69 -34 21
-65 44 -69 50 -4 7 -24 23 -46 37 -28 17 -39 31 -39 49 0 16 6 25 15 25 10 0
15 10 15 26 0 22 2 25 15 14 8 -7 28 -10 43 -8z m861 -432 c24 -17 54 -30 66
-30 12 0 31 -9 43 -20 12 -11 34 -25 49 -31 l28 -11 -24 -19 c-31 -25 -41 -24
-41 6 0 23 -4 25 -40 25 -22 0 -40 4 -40 9 0 5 -35 12 -78 16 -76 7 -79 8 -74
31 2 13 8 24 13 24 5 0 9 7 9 15 0 24 41 17 89 -15z m276 -130 c4 -6 -10 -10
-34 -10 -23 0 -41 5 -41 10 0 6 15 10 34 10 19 0 38 -4 41 -10z m95 -55 c7 -9
8 -15 2 -15 -5 0 -12 7 -16 15 -3 8 -4 15 -2 15 2 0 9 -7 16 -15z m-318 -54
c12 -12 33 -21 47 -22 24 0 24 -1 6 -9 -39 -17 -63 -11 -77 17 -8 17 -25 31
-43 35 -26 6 -25 7 7 3 21 -2 47 -13 60 -24z m-32 -11 c0 -5 -2 -10 -4 -10 -3
0 -8 5 -11 10 -3 6 -1 10 4 10 6 0 11 -4 11 -10z"/>
<path d="M20 2540 l0 -40 80 0 c44 0 80 4 80 9 0 5 -24 17 -52 27 -29 9 -62
23 -73 30 -30 21 -35 17 -35 -26z"/>
</g>
</svg>
